<svg width="1400" height="820" viewBox="0 0 1400 820" fill="none" xmlns="http://www.w3.org/2000/svg">
  <rect width="1400" height="820" rx="40" fill="#070611"/>
  <rect x="70" y="76" width="1260" height="668" rx="32" fill="#0d0a18" stroke="#2a2140" stroke-width="2"/>
  <rect x="108" y="116" width="286" height="588" rx="24" fill="#110d1e"/>
  <rect x="432" y="116" width="860" height="190" rx="24" fill="#100d1b"/>
  <rect x="432" y="334" width="410" height="370" rx="24" fill="#100d1b"/>
  <rect x="882" y="334" width="410" height="370" rx="24" fill="#100d1b"/>
  <text x="132" y="164" fill="#f8f7ff" font-family="Roboto, Arial, sans-serif" font-size="34" font-weight="700">Nova Deploy</text>
  <text x="132" y="205" fill="#8f879f" font-family="Roboto, Arial, sans-serif" font-size="20">production workspace</text>
  <circle cx="140" cy="270" r="8" fill="#c084fc"/>
  <text x="164" y="278" fill="#d8d2e7" font-family="Roboto, Arial, sans-serif" font-size="22">nova-cloud/web</text>
  <circle cx="140" cy="330" r="8" fill="#a855f7"/>
  <text x="164" y="338" fill="#d8d2e7" font-family="Roboto, Arial, sans-serif" font-size="22">nova-cloud/api</text>
  <circle cx="140" cy="390" r="8" fill="#6366f1"/>
  <text x="164" y="398" fill="#d8d2e7" font-family="Roboto, Arial, sans-serif" font-size="22">worker-queue</text>
  <text x="472" y="166" fill="#f8f7ff" font-family="Roboto, Arial, sans-serif" font-size="32" font-weight="700">Deployment pipeline</text>
  <text x="472" y="205" fill="#8f879f" font-family="Roboto, Arial, sans-serif" font-size="20">build, test, release, monitor</text>
  <rect x="472" y="242" width="760" height="14" rx="7" fill="#211936"/>
  <rect x="472" y="242" width="560" height="14" rx="7" fill="url(#progress)"/>
  <circle cx="520" cy="468" r="64" fill="#171126" stroke="#2c2243" stroke-width="2"/>
  <circle cx="520" cy="468" r="34" fill="#7c3aed"/>
  <text x="618" y="444" fill="#f8f7ff" font-family="Roboto, Arial, sans-serif" font-size="28" font-weight="700">Build ready</text>
  <text x="618" y="482" fill="#8f879f" font-family="Roboto, Arial, sans-serif" font-size="20">cache restored in 12s</text>
  <text x="918" y="386" fill="#f8f7ff" font-family="Roboto, Arial, sans-serif" font-size="28" font-weight="700">Runtime health</text>
  <polyline points="930,602 1000,530 1060,566 1128,442 1218,504" stroke="#c084fc" stroke-width="8" stroke-linecap="round" stroke-linejoin="round"/>
  <path d="M930 620H1238" stroke="#241b38" stroke-width="2"/>
  <path d="M930 560H1238" stroke="#241b38" stroke-width="2"/>
  <path d="M930 500H1238" stroke="#241b38" stroke-width="2"/>
  <path d="M930 440H1238" stroke="#241b38" stroke-width="2"/>
  <defs>
    <linearGradient id="progress" x1="472" y1="249" x2="1032" y2="249" gradientUnits="userSpaceOnUse">
      <stop stop-color="#6366f1"/>
      <stop offset="0.5" stop-color="#a855f7"/>
      <stop offset="1" stop-color="#c084fc"/>
    </linearGradient>
  </defs>
</svg>
